<?xml version="1.0" encoding="utf-8"?>
<!-- Generator: Adobe Illustrator 23.0.1, SVG Export Plug-In . SVG Version: 6.00 Build 0)  -->
<svg version="1.1" id="Calque_1" xmlns="http://www.w3.org/2000/svg" xmlns:xlink="http://www.w3.org/1999/xlink" x="0px" y="0px"
	 viewBox="0 0 987.7 605" style="enable-background:new 0 0 987.7 605;" xml:space="preserve">
<style type="text/css">
	.st0{fill-rule:evenodd;clip-rule:evenodd;fill:#C7CBCE;}
	.st1{fill-rule:evenodd;clip-rule:evenodd;fill-opacity:0.1;}
	.st2{fill-rule:evenodd;clip-rule:evenodd;fill:#AFB9C5;}
	.st3{fill-rule:evenodd;clip-rule:evenodd;fill:#B0B8BE;}
	.st4{opacity:0.3459;}
	.st5{fill-rule:evenodd;clip-rule:evenodd;fill:#DBD9D8;}
	.st6{fill-rule:evenodd;clip-rule:evenodd;fill:#F2F2F2;}
	.st7{fill-rule:evenodd;clip-rule:evenodd;fill:#DDE3E9;}
	.st8{opacity:0.7;}
	.st9{fill:none;stroke:#CBCBCB;stroke-width:8;}
	.st10{fill-rule:evenodd;clip-rule:evenodd;fill:#C5CFD6;}
	.st11{fill-rule:evenodd;clip-rule:evenodd;fill:#89C5CC;}
	.st12{fill-rule:evenodd;clip-rule:evenodd;fill:#C1DEE2;}
	.st13{fill-rule:evenodd;clip-rule:evenodd;fill:#69A1AC;}
	.st14{fill-rule:evenodd;clip-rule:evenodd;fill:#FFFFFF;}
	.st15{fill-rule:evenodd;clip-rule:evenodd;fill:#915B3C;}
	.st16{fill-rule:evenodd;clip-rule:evenodd;fill:#191847;}
	.st17{fill-rule:evenodd;clip-rule:evenodd;fill:#B28B67;}
	.st18{fill-rule:evenodd;clip-rule:evenodd;fill:#2F3676;}
	.st19{fill-rule:evenodd;clip-rule:evenodd;fill:#E4E4E4;}
	.st20{fill-rule:evenodd;clip-rule:evenodd;fill:#5C63AB;}
	.st21{fill-rule:evenodd;clip-rule:evenodd;fill:#E87613;}
	.st22{fill-rule:evenodd;clip-rule:evenodd;fill:#FF9B21;}
	.st23{fill-rule:evenodd;clip-rule:evenodd;fill:#DB2721;}
	.st24{fill-rule:evenodd;clip-rule:evenodd;fill:#FF4133;}
</style>
<title>Scene/Home</title>
<desc>Created with Sketch.</desc>
<g id="Clock" transform="translate(505.000000, 85.000000)">
	<circle id="Clock-Frame" class="st0" cx="319.7" cy="23.7" r="53"/>
	<circle id="Time" class="st1" cx="319.7" cy="-18.3" r="3"/>
	<circle class="st1" cx="277.7" cy="23.7" r="3"/>
	<circle class="st1" cx="361.7" cy="23.7" r="3"/>
	<circle class="st1" cx="319.7" cy="65.7" r="3"/>
	<polygon id="Hand" class="st2" points="319.7,-12.3 321.7,22.7 317.7,22.7 	"/>
	<polygon class="st2" points="337.4,41.4 319,25.9 321.9,23 	"/>
	<circle class="st3" cx="319.7" cy="23.7" r="4"/>
</g>
<g id="Background-Shape-2" transform="translate(29.000000, 244.000000)" class="st4">
	<path id="Background-Shape" class="st5" d="M639,138C630.4,44.7,167-135.2,81-46.9s-3.3,254.1,177,296.5S647.6,231.3,639,138z"/>
	<path class="st0" d="M352.6,198.6c7.7-79.2,422.8-232.1,499.9-157.1s57.5,232.9-104,269S344.8,277.9,352.6,198.6z"/>
</g>
<g>
	<g transform="translate(25.000000, 0.000000)">
		<g id="Light" transform="translate(0.000000, 152.673469)">
			<ellipse id="Hanging-Lamp-Light" class="st6" cx="53.2" cy="5.2" rx="42.5" ry="22.5"/>
			<path id="Hanging-Lamp" class="st7" d="M102.7,20.7c0-27.6-22.2-50-49.5-50S3.7-6.9,3.7,20.7"/>
		</g>
		<rect id="Wire" x="50.7" class="st7" width="5" height="130.7"/>
	</g>
	<g transform="translate(115.000000, 0.000000)" class="st8">
		<g transform="translate(0.000000, 113.000000)">
			<ellipse class="st6" cx="40.7" cy="-1.4" rx="31.8" ry="18.2"/>
			<path class="st7" d="M77.7,11.1c0-22.3-16.6-40.4-37-40.4s-37,18.1-37,40.4"/>
		</g>
		<rect x="38.7" class="st7" width="5" height="106.7"/>
	</g>
</g>
<g transform="translate(524.000000, 198.000000)">
	<path id="Body" class="st9" d="M341.7,7l18.6-18.6c3.1-3.1,8.2-3.1,11.3,0l0,0L421,37.9c3,3,4.7,7.1,4.7,11.3v327.6"/>
	<path id="Lamp-Base" class="st2" d="M398.7,375.7h53c1.7,0,3,1.3,3,3v1c0,1.7-1.3,3-3,3h-53c-1.7,0-3-1.3-3-3v-1
		C395.7,377.1,397.1,375.7,398.7,375.7z"/>
	
		<g id="Lamp-Top" transform="translate(48.083261, 49.083261) rotate(45.000000) translate(-48.083261, -49.083261) translate(14.583261, 14.583261)">
		<path id="Lamp" class="st10" d="M211.5-218.5L211.5-218.5c18.2,0,33,14.8,33,33v28h-66v-28C178.5-203.7,193.3-218.5,211.5-218.5z"
			/>
		
			<ellipse transform="matrix(7.605544e-06 1 -1 7.605544e-06 53.3307 -370.2369)" class="st6" cx="211.8" cy="-158.5" rx="6.5" ry="33"/>
	</g>
</g>
<g id="Big-Leaf-Plant" transform="translate(16.000000, 371.000000)">
	<g id="Big-Ass-Leaf" transform="translate(22.000000, 0.000000)">
		<path id="leaf" class="st7" d="M29-28.1c2.9-0.3,5.9-0.2,8.6,0.9c5.7,2.4,7.3,9.1,7.2,14.5c-0.1,5.9-1.3,12.2,3.1,17
			c2,2.2,4.6,3.8,6.6,6c2.1,2.4,3.8,5.1,5.1,8c2.3,5.3,3.4,11.6,1.3,17.2c-1.8,4.9-6.5,9.4-5.5,15c1,5.8,6.9,10.3,10.6,14.6
			c4.2,4.9,8,11.2,8.6,17.7c0.6,6.2-2.1,12.4-6.2,17.1c-8.3,9.3-20.7,13.9-33.2,13.9c-5.3,0-11.3-0.3-15.9-3.1
			c-1.4-0.9-2.2-1.9-3-3.2c-0.8-1.2-1.8-2-2.9-2.9c-2.5-1.9-4.4-4.5-5.5-7.4C3.4,85.8,7,71.9,13.4,62c1.5-2.4,2.7-4.6,2-7.5
			c-0.8-2.9-2.6-5.6-4.3-8.1c-1.6-2.5-3.5-4.9-4.8-7.6C4.9,36,4.6,33,4.8,29.9c0.4-5.8,3-11.2,6.5-15.9c3.4-4.5,7.4-8.8,7.5-14.7
			c0-6.3-4.2-11.8-2.4-18.2c0.7-2.6,2.2-5.3,4.6-6.9C23.3-27.3,26.3-27.8,29-28.1z"/>
		<path id="middle-thing" class="st10" d="M27.1-18.1c0.1-0.8,1.1-1.3,1.8-1.1c1,0.3,1,1.3,1,2.1c-0.1,2.6,0.3,5.2,0.9,7.8
			C32.2-4,34.6,0.9,36.6,6c1.9,5.1,2.8,10.4,1.7,15.8C37.2,27,35.5,31.9,34.4,37c-1,4.5-2,9.3-0.5,13.8c1.4,4.3,4.5,7.8,6.8,11.8
			c4.7,8.1,6.7,17.1,7,26.3c0.1,4.3,0,8.6-1,12.8c-0.6,2.4-1.3,5.7-3.4,7.4c-1,0.8-2.6,1-3.4-0.1c-0.8-1.1-0.1-2.7,0.1-3.9
			c1-4.9,1.2-10,1-15c-0.2-4.9-0.8-9.7-2.3-14.4c-1.4-4.3-3.6-8.2-6.1-11.9c-2.6-3.8-5.3-7.7-6.3-12.2c-1.1-4.6-0.2-9.3,1-13.9
			c1.2-4.8,2.9-9.5,4.6-14.1c1.6-4.5,2.2-8.8,1.3-13.6C31.3,0.5,26.5-8.3,27.1-18.1z"/>
	</g>
	<g transform="translate(32.000000, 11.000000)">
		<path class="st7" d="M94.6-27.7c3.5,1.1,7.1,2.8,9.6,5.5c5.4,5.8,3.7,14.5,0.8,20.9c-3.2,6.9-8,13.8-5.3,21.7
			c1.3,3.6,3.4,6.9,4.6,10.6c1.3,3.9,1.8,8,1.7,12.1c-0.1,7.5-2.1,15.5-7.5,21c-4.8,4.9-12.6,7.7-14.3,14.8
			c-1.9,7.4,2.7,15.8,4.7,22.8c2.3,8,3.5,17.4,0.8,25.4c-2.6,7.6-9,13.6-16.3,17c-14.6,6.8-31.6,5.7-46.2-0.8
			c-6.2-2.8-13.1-6.2-17-11.9c-1.2-1.8-1.5-3.3-1.8-5.4c-0.2-1.9-1-3.3-1.9-5c-2-3.6-2.7-7.6-2.6-11.6C4.4,93.7,16,79.2,28.7,70.7
			c3-2,5.7-4.1,6.3-7.8c0.7-3.9-0.1-8-0.7-11.8c-0.6-3.8-1.5-7.6-1.6-11.5c-0.1-4,1-7.7,3-11.3c3.6-6.6,9.4-11.7,16-15.4
			C58,9.4,65,6.4,68.1-0.6c3.3-7.4,1.4-16.2,6.8-22.8c2.3-2.7,5.4-5.2,9.1-5.8C87.5-29.7,91.3-28.7,94.6-27.7z"/>
		<path class="st10" d="M87.4-15.5c0.5-1,1.9-1,2.7-0.4c1.1,0.9,0.5,2,0,3c-1.5,3.1-2.4,6.3-3,9.7c-1.2,7-1,14.1-1.4,21.2
			s-2.1,13.8-6.3,19.6c-3.9,5.5-8.5,10.5-12.4,16c-3.5,4.8-7.2,9.9-7.8,16c-0.6,5.9,1.2,11.7,1.8,17.5c1.2,12-1.1,23.7-5.6,34.8
			c-2.1,5.1-4.5,10.2-7.9,14.7c-1.9,2.6-4.6,6-7.9,6.9c-1.5,0.4-3.6-0.1-3.9-1.9c-0.3-1.7,1.3-3.3,2.2-4.5c3.8-5.3,6.7-11.2,9-17.3
			c2.3-5.9,4.1-11.9,4.8-18.2c0.6-5.8,0.1-11.6-0.9-17.4c-1-5.9-2.1-11.9-1-17.8c1.2-6,4.6-11.2,8.4-15.9c4-5,8.3-9.7,12.7-14.3
			c4.3-4.5,7.2-9.3,8.7-15.4C82.5,8.8,81.5-4.2,87.4-15.5z"/>
	</g>
	<g transform="translate(0.000000, 57.000000)">
		<path class="st10" d="M17-29.3c5.9,0,11.1,3.1,14.6,7.6c4.2,5.2,5,11.5,6.7,17.7c0.8,3.1,2.3,6.1,4.8,8.2c2.3,1.9,5.3,2.3,8,3.2
			c5.5,1.9,10,6.3,11.8,11.8c2.2,6.7-0.1,13.4,0.3,20.1c0.4,6.2,6.5,10.1,11.4,13c4.8,2.9,9.2,5.7,10.7,11.4
			c1.5,6.1,2.1,12.8-0.1,18.8c-3.6,10-14,14.3-24.1,15c-9.2,0.6-20.7-0.4-27.6-7c-4.1-4-5.6-9.5-5.4-15.1c0.1-3.4,0.8-6.9,1.7-10.2
			c0.6-2.4,1.5-4.7,1.7-7.1c0.6-6.5-5.4-7.7-10.5-9.5c-6.5-2.3-11-6.5-14.2-12.5c-2.8-5.5-4-11.7-2.3-17.8C5.4,15.2,7,12.4,9.2,10
			c1-1.1,2.3-1.9,3.2-3.1c0.8-1,0.6-2.4,0.4-3.6C11.6-2.3,7.5-7,6-12.6C4.7-17.7,5.5-24,10.1-27.2C12.1-28.6,14.6-29.3,17-29.3z"/>
		<path class="st2" d="M25.1-14.6C31.3-8,33,1.1,33.5,9.8c0.3,4.9,0,10.1,1.4,14.8c1.2,4.1,4.1,7.2,7.1,10.1
			c6,5.9,12.7,11.9,14.4,20.5c1,5,0.3,10.2,1.8,15.2c1.3,4.5,3.6,9,6.3,12.8c2.2,3.1,5.1,5.4,7.6,8.3c0.7,0.9,1.8,2.2,1.5,3.4
			c-0.4,1.4-2.2,1.9-3.5,1.7c-3-0.5-5.6-3.4-7.6-5.6c-2.9-3.1-5.4-6.4-7.4-10.2c-2.2-4.1-4-8.5-4.8-13.2c-0.8-4.8-0.4-9.9-2.2-14.5
			C45,45.3,37.6,40.7,32.2,34.6c-6.7-7.6-5.7-17-5-26.3C27.6,3.4,28-2.4,25.4-7.1c-1-1.8-3.2-3.4-3.6-5.5
			C21.4-14.4,23.5-16.3,25.1-14.6z"/>
	</g>
	<path id="Base" class="st11" d="M31.7,151.7c0,38.1,6.2,58,39,58s39-19.9,39-58H31.7z"/>
</g>
<g id="Plant" transform="translate(537.000000, 328.000000)">
	<g id="Succulents" transform="translate(13.000000, 0.000000)">
		<path class="st12" d="M285.1-29.1c8.8,21,23.8,35.6,31.8,57.4c4.7,12.9,6.7,27,6.8,41.4c0.1,7.8-0.1,15.7-0.1,23.5
			c0,7.6-0.2,15.2-0.9,22.8c-0.7,7.6-1.4,15.2-1.7,22.8c-0.3,6-0.4,12.9-2.4,18.4c-1.6,4.3-5.7,5-6.8-0.3c-0.6-2.9-0.5-6.2-0.5-9.2
			c0.1-3.9,0.3-7.7,0.4-11.6c0.5-15.5-0.1-30.9,0.2-46.4c0.3-15.1,2.2-30.2,0.1-45.2c-1.8-12.4-6.3-23.1-11.5-33.3
			c-5-9.8-10.4-19.4-13.8-30.6c-1-3.2-1.7-6.5-2.1-10C284.9-29.3,285-29.3,285.1-29.1z"/>
		<path class="st11" d="M282.7,12.3c1.7,1.3,2.7,3.1,3.9,4.9c1.5,2.3,3.2,4.3,4.7,6.6c3.1,4.7,5.8,9.7,8.6,14.7
			c5.3,9.3,9.3,19.3,11.3,30.1c2.1,11.2,2.6,22.8,3.5,34.1c0.9,12,1.8,24.2,2,36.3c0.1,5.4,0.3,11.2-0.3,16.5
			c-0.4,3.3-1.9,6.2-5.3,6.2c-7.2-0.1-10.6-8.1-12.1-14.6c-2.1-9.7-2.5-20-2.2-29.9c0.4-11.9,2.5-23.7,3.4-35.6
			c0.9-12.6,0.4-25-3.9-36.8c-2.2-6-4.7-11.8-7-17.8c-1-2.5-1.8-5.1-3.1-7.5c-1.5-2.6-3.3-5-4.4-7.8
			C282.1,11.9,282.4,12.1,282.7,12.3z"/>
		<path class="st12" d="M366.1-12.8c0.2-0.2,0.4-0.3,0.7-0.5c-0.6,2.7-1.8,4.9-2.7,7.3c-0.8,2.2-1.2,4.7-1.7,7.1
			c-1.3,5.7-2.7,11.2-3.9,17c-2.3,11.3-1.9,23.6-0.4,36.1c1.5,11.9,3.8,23.7,4.8,35.6c0.9,9.9,1.3,20,0.4,29.4
			c-0.6,6.4-2.5,14-7.8,13.4c-2.5-0.3-3.8-3.3-4.3-6.6c-0.8-5.4-1-11.1-1.3-16.4c-0.7-12-0.9-23.9-1-35.8
			c-0.1-11.2-0.5-22.6,0.2-33.5c0.7-10.5,3-20,6.2-28.8c1.7-4.6,3.3-9.3,5.2-13.7c0.9-2.1,2-4,2.9-6.1
			C364.3-9.9,364.9-11.7,366.1-12.8z"/>
		<path class="st12" d="M284.9,47c1-1.6,3.1,3.7,3.4,4.4c-0.1-0.3-0.3-0.7-0.4-1c1.9,3.2,3.6,6.4,4.7,10.1c1.1,3.6,2,7.2,3,10.9
			c1.9,6.8,4.3,13.4,6,20.2c1.7,6.7,2.1,13.2,1.7,20.1c-0.4,7.2-0.7,14.4-0.2,21.6c0.2,3.4,1.3,6.6,2.1,9.9c0.8,3.3,1.4,6.6,2.3,9.9
			c0.2-0.4,0.2,1,0.2,1.1c0,0.8-0.1,1.5-0.4,2.3c-0.7,2-1.9,3.7-3.8,4.2c-3.5,1-6.7-2.2-7.8-5.5c-1.6-4.8-2.5-10-3.2-15
			c-0.7-4.6-0.9-9.2-0.7-13.9c0.4-9.2,2.1-18.2,2.5-27.4c0.5-10-1.5-19.4-3.1-29.1c-0.8-4.7-1.6-9.3-3.1-13.8
			c-0.6-1.8-1.4-3.4-2.3-5.1C285.3,49.8,284.3,48.1,284.9,47z"/>
		<path class="st13" d="M313,31.4c-0.4,11.4-1.1,22.8-2.6,34.1c-1.6,11.6-3.3,23.1-4.8,34.6c-1.5,11.3-3,22.7-2.8,34.1
			c0.2,8.4-1.2,22.6,8.1,26.8c9.5,4.2,11.5-13.7,12.1-19.7c1.2-11.4,0.8-22.9,0.2-34.3c-0.6-11.7-1.6-23.4-2.8-35.1
			c-1.4-13-2.4-26-3.3-39c-0.4-6.4-0.5-12.9-0.4-19.3c0.1-6.1-0.1-12.2-2.3-18c-0.1,0.1-0.2,0.2-0.3,0.2"/>
		<path class="st11" d="M361.8,67.7c-1.7,2.5-3.4,4.9-5,7.6c-2.9,4.7-5.5,9.9-6.3,16.6c-1.6,14.1-0.3,29.2,0,43.7
			c0.1,3-0.3,5.8,0.9,8.6c1.1,2.6,3,4.5,4.9,4.5c4,0,3.4-9.9,3.4-14.3c0-7.6-0.8-15.3-0.8-22.9c0.1-7.5,0.5-15.1,1.6-22.3
			c1.1-7.3,2.7-14.2,4.9-20.7c0.3-0.9,2.4-7.9,0.4-6.7"/>
		<path class="st13" d="M344-7.3c-2.7,0-2.6,13.2-2.7,14.9c-0.3,6.1-0.2,12.3-0.4,18.4c-0.4,13.4-0.9,26.9-2.9,40.1
			c-1.1,7.1-2.3,14.2-3.7,21.3c-1.4,7.1-3.2,14.2-4.1,21.3c-0.9,6.9-0.4,13.9-0.3,20.9c0.1,7,0.3,14,1.2,20.9
			c0.2,1.7,0.5,3.4,0.8,5.1c0.2,1.4,0.1,3.2,0.5,4.5c0.6,2.2,3.4,2.9,5.2,2.5c5-0.9,8.2-7.2,9.9-11.8c2.2-5.8,3.3-12.2,4.5-18.4
			c1.3-7,2-14.1,2.4-21.2c0.7-14.4-0.2-28.9-1.2-43.3c-0.6-8-1.2-16-2.3-23.9c-1-7.9-2.3-15.8-3.2-23.8c-0.6-5.8-1.2-11.6-1.6-17.4
			C346.1,1.6,346-7.3,344-7.3"/>
		<path class="st11" d="M340.7,88.9c-0.4-13.9-6-74.9-7.3-91.7c-0.3-4.2-3.4-21.7-3.8-26.5c-1.1,1.3-1,22.3-1,27.1S328,7.3,327.7,12
			c-0.3,4.8-7.5,67.3-8.4,71.9c-1.8,9.2-3.1,18.7-4,28.2c-0.9,9.2-2.4,18.9-1.1,28.2c0.3,2.1,0.7,4.2,1.5,6.2c0.8,2.1,1.3,4.1,2,6.3
			c1,3.6,2.9,6.7,5.7,8.2c5.8,3,9-3.8,10.6-9.8c2.5-9.5,4.2-19.2,4.9-29.1C339.8,111,341,100,340.7,88.9"/>
	</g>
	<g id="Planter" transform="translate(0.000000, 159.000000)">
		<path id="Vase" class="st14" d="M293.7-29.3h87c1.1,0,2,0.9,2,2v87c0,1.1-0.9,2-2,2h-87c-1.1,0-2-0.9-2-2v-87
			C291.7-28.4,292.6-29.3,293.7-29.3z"/>
		<path id="Leg" class="st10" d="M283.7-19.3h6c1.1,0,2,0.9,2,2v109c0,1.1-0.9,2-2,2h-6c-1.1,0-2-0.9-2-2v-109
			C281.7-18.4,282.6-19.3,283.7-19.3z"/>
		<path class="st10" d="M333.7-19.3h6c1.1,0,2,0.9,2,2v109c0,1.1-0.9,2-2,2h-6c-1.1,0-2-0.9-2-2v-109
			C331.7-18.4,332.6-19.3,333.7-19.3z"/>
		<path class="st10" d="M384.7-19.3h6c1.1,0,2,0.9,2,2v109c0,1.1-0.9,2-2,2h-6c-1.1,0-2-0.9-2-2v-109
			C382.7-18.4,383.6-19.3,384.7-19.3z"/>
	</g>
</g>
<path class="st5" d="M159.7,468.7h83h21v112h-21v-88.3h-83v88.3h-21v-112H159.7z"/>
<g>
	
		<g transform="translate(206.000000, 200.500000) scale(-1, 1) translate(-206.000000, -200.500000) translate(56.000000, 24.000000)">
		<g transform="translate(82.000000, 0.000000)">
			<g id="Head" transform="translate(54.000000, 31.000000)">
				<path class="st15" d="M-22.4,280.9l-23-3.5l8.1-27c-6.8,2.8-13.2,3.7-15.9,2.5c-6.9-2.9-3.6-29.4,3.5-38.9s36.4-9.7,34.8,11.1
					c-0.6,7.2-4.5,13.1-9.8,17.6L-22.4,280.9z"/>
			</g>
			<path id="Hair" class="st16" d="M27.3,278.2l0.2-10.8c2.1-4.4,2-7.4-0.5-9s-5.4-0.3-8.8,3.8l-2.8-0.4c-0.3-3.9-1.3-6.4-3.2-7.4
				c-5.9-3.2-10.6-2.6-14.3-3.1c-1.9-14.7,8.4-19.6,24-19c10.4,0.4,16,4.6,16.7,12.5c3.5,1.5,5.4,4.2,5.6,8.2
				c0.4,5.9-9.2,13.5-14,25.9L27.3,278.2z"/>
		</g>
		<g transform="translate(0.000000, 187.000000)">
			<path id="LegLower" class="st17" d="M-49.4,353C-23,294.5-5.8,259.7,2.3,248.6c5.3-7.3,28.9,0,21.8,15.7
				c-3,6.6-12.5,23.8-24.1,43.1c-6.8,11.3-19.7,28.6-38.9,52L-49.4,353z"/>
			<path class="st18" d="M-45.5,334c3.8-5.1,34-73.3,46.7-90.6c5.6-7.6,42.4,3.1,34.8,19.5L0.4,352.6L-45.5,334z"/>
			
				<g id="Lower-Leg" transform="translate(220.172961, 98.499284) rotate(39.000000) translate(-220.172961, -98.499284) translate(192.672961, 26.499284)">
				<path class="st15" d="M76.5,346c-4.4-0.2-55.7-1.1-92-3.1c-14.6-0.8-9.2-28.5,6-26.9c5.1,0.5,10.6,1.1,16.2,1.8
					c19.6,2.3,60.6,12.9,72.4,16.4C86.4,336.3,82.7,346.3,76.5,346z"/>
			</g>
			
				<g transform="translate(189.500000, 140.000000) rotate(30.000000) translate(-189.500000, -140.000000) translate(159.000000, 120.000000)">
				<path id="shoe" class="st19" d="M42.4,232.5c-1.1-0.1-2,0.7-2.1,1.8l0,0c-0.3,2.8-0.8,4.8-1.5,6c-0.9,1.5-2.6,3.2-5.2,5
					l-4.3-0.6l0,0c-0.5-0.1-1,0.3-1.1,0.9l-2.9,27.7c-0.8,1.9-1.7,4.3-2.9,7.1c-1.2,2.8,0.6,4.8,5.4,5.9
					C45,256.5,54.2,240.7,55.2,239c-2.6-2.2-4.7-3.7-6.2-4.6C47.8,233.7,45.6,233.1,42.4,232.5C42.5,232.5,42.4,232.5,42.4,232.5z"
					/>
			</g>
			<g transform="translate(288.000000, 132.000000)">
				<path class="st19" d="M-318.7,223.8c-0.4-1-1.6-1.4-2.6-1l0,0c-2.5,1.2-4.5,1.7-6,1.7c-1.8,0-4.1-0.7-6.9-2l-1.6-4l0,0
					c-0.2-0.5-0.8-0.7-1.3-0.5l-25.5,11.4c-2,0.3-4.6,0.6-7.6,1s-3.9,2.9-2.5,7.6c34.5,0,52.7,0,54.8,0c0.6-3.4,0.9-5.9,0.9-7.7
					C-317,228.9-317.5,226.7-318.7,223.8C-318.7,223.9-318.7,223.8-318.7,223.8z"/>
			</g>
			<path id="Leg-and-Butt" class="st20" d="M48.7,270.6L84.1,316l-43.2,27.5c-31.1-53.3-46.7-80-46.8-80.2c-1.7-4.5-3.4-18,5.8-22.6
				c51.4-23,80.6-35.4,87.6-37.5h52.8c4.9,33.7-3.4,49.1-32.1,54.2c-10.1,1.8-29.9,5.1-59.5,9.9C47.8,267.7,47.8,268.8,48.7,270.6z"
				/>
		</g>
		<g transform="translate(22.000000, 82.000000)">
			<path id="Skin" class="st15" d="M29.9,312.6l-30.7,12.7c-8.7,10.2-13.5,14.4-14.6,12.7c-1.5-2.5,1.8-4.8,1-6.7
				c-0.8-1.9-6.6-1.7-12.1-1.3c-5.5,0.4-3.9-2-2.6-3.2c5.6-3.4,12.7-6.2,21.1-8.5l31-22.8L29.9,312.6z M154.5,358.5
				c1.4,2.8,11.7,11.4,18.8,16.3c2.9,2,1.7,4.5,0.6,5.2c-8.8,5.4-14.6-1-22.2-4.5c-8.4-3.9-7.7,7.1-14.3,4.1c2-4.6,6.8-13,4.5-18.6
				c-1-2.5-7.8-23.9-20.3-64.4l20.3-0.1C148.4,333.9,152.6,354.6,154.5,358.5z"/>
			<path id="Coat-Back" class="st21" d="M2.9,327.2l-9.2-11.4c38.2-27.4,51-79.1,82.2-106l8.4,1.4C85.6,255.9,69.2,319,2.9,327.2z"
				/>
			<path id="Shirt" class="st7" d="M93.5,206.1l-21.4,3.4c0,40.6-22.1,71.4-27.8,100c-0.5,2.5-1.1,7.4,2.3,7.4c15.9,0,40.6,0,74.3,0
				C117.4,269.7,111.3,234.6,93.5,206.1z"/>
			<path id="Coat-Front" class="st22" d="M154.9,357.6H139c-3.2-5.5-6.5-12.3-9.9-20.4H70.5c-8.6-21.8-3.3-65.4,15.9-130.6l6.7-0.4
				c0.6-0.1,1.3-0.1,2-0.1c13.3,0,20.8-5.3,29.2-2.7s11.2,10.3,3.4,24.5c-1.8,3.3-4.3,5.4-7.4,6.3
				C144.9,267.9,156.4,309.1,154.9,357.6z"/>
			<path id="Shade" class="st1" d="M129,337.2h-21.7c4.1-6.9,7.1-18.1,9-33.5C120.7,316.6,125,327.8,129,337.2z"/>
		</g>
	</g>
</g>
<g>
	<g>
		<g transform="translate(40.000000, 27.000000)">
			<g transform="translate(82.000000, 0.000000)">
				<g id="Head_1_" transform="translate(54.000000, 31.000000)">
					<path class="st17" d="M575.6,196.2l-23.6,4.5l-1.4-29c-5.6,5-11.5,8.1-14.6,7.9c-7.7-0.5-13.5-27.3-9.9-39
						c3.7-11.7,32-21.9,37.5-1.2c1.9,7.2,0.1,14.3-3.4,20.5L575.6,196.2z"/>
				</g>
				<path id="Hair_1_" class="st16" d="M590.5,171.1c-10.3,2.1-11.9,0.5-13.1-5.7c1.4-1.5,7-4.7,13.5-6.5c3.2-1.6,7.2-2.2,11.4-1.3
					c5,0.4,9.6,2.6,12.4,7.7c8.6,9.9,5.9,22.4,0.1,27.6c-2.1-1.7-4.1-3.5-5.8-5.1c0.9-1.3,1.3-2.9,1-4.6c-0.6-3.3-3.8-5.4-7-4.8
					c-0.2,0-0.5,0.1-0.7,0.2c1.8,11.5,2.5,19.2,2,23.1c-0.8,6-11.4,9.5-15.2,10.2s-3.8-3.5-4.3-5.6c-0.2-1.3,4-0.3,3.6-2.6
					c-0.4-2.2-5.6-2.6-6.9-3.9c-1.6-1.5-2.4-3.7-0.6-4.1c2.5-0.5,8.2,2.3,14,1.1c3.9-0.7,5.1-7.5,3.6-20.2
					C595.7,173.9,593.3,171.9,590.5,171.1z"/>
			</g>
			<g transform="translate(0.000000, 187.000000)">
				<polygon id="Leg_1_" class="st16" points="659,127.9 630.9,348.9 650.2,348.9 676.7,255.1 712.9,127.9 				"/>
				<path class="st18" d="M658.9,127.9c17.7,62.7,29.5,98.5,33.3,107.3c3.8,8.8,22.1,46.7,54.9,113.7h20
					c-25.7-69.8-39.1-107.7-39.9-113.7c-0.9-6-3.7-41.7-4.6-107.3L658.9,127.9L658.9,127.9z"/>
				<g transform="translate(72.000000, 199.000000)">
					<path id="Shoe" class="st16" d="M686.9,167.9v-2l-13,2h-38v-4c16-4.3,29-10,39-17h21l1,21H686.9z"/>
				</g>
				<g transform="translate(188.000000, 199.000000)">
					<path class="st16" d="M454.9,167.9v-2l-13,2h-38v-4c16-4.3,29-10,39-17h21l1,21H454.9z"/>
				</g>
			</g>
		</g>
	</g>
	<g>
		<path id="Skin_1_" class="st17" d="M669.5,349.5L640,366.9c-7.4,11.6-11.7,16.7-13,15.1c-1.9-2.4,1.2-5.1,0.1-7s-7-0.8-12.5,0.5
			c-5.6,1.2-4.3-1.5-3.1-2.9c5.3-4.2,12-8.1,20.3-11.6l28.3-27.6L669.5,349.5z M816.2,390.7c1.4,2.9,12,11.7,19.4,16.8
			c3,2,1.7,4.6,0.6,5.3c-9.1,5.6-15-1-22.9-4.7c-8.6-4-7.9,7.3-14.7,4.2c2.1-4.7,7-13.4,4.7-19.2c-1-2.5-9.9-30.8-26.6-84.9
			l21.9-0.1C808.3,359.2,814.2,386.7,816.2,390.7z"/>
		<path id="Clothes-Back" class="st23" d="M661.7,362.8c-8.5,2.8-12.5-1.2-14.4,1l-11.2-8.2c2.5-2-2.3-5.3-0.7-11.9
			c4.3-18,74.3-50.8,87.9-99l8.6,1.5C731.9,303.1,670.2,359.9,661.7,362.8z"/>
		<path id="Clothes-Front" class="st24" d="M716.6,242.2c-0.2-2.2,1.5-4.1,3.7-4.3l26.9-1.9c2.2-0.2,4.1,1.5,4.3,3.7l0.4,5.4
			C788.3,270,810.7,310,819,365.2c1.9,12.3-5.1,15-4.1,20.5l-14.7,4.1c0-4.1-11.2-5.7-14-16.3c-1.7-6.1-3.9-13.4-6.8-21.9
			c-0.2,11-2.3,21.2-6.8,29.5c-11.2,20.7-76.1-2-82.9-23.1c-8.2-25.6,28.6-41.8,27.6-105.6L716.6,242.2z"/>
	</g>
</g>
</svg>
