<?xml version="1.0" encoding="utf-8"?>
<!-- Generator: Adobe Illustrator 23.0.1, SVG Export Plug-In . SVG Version: 6.00 Build 0)  -->
<svg version="1.1" id="Calque_1" xmlns="http://www.w3.org/2000/svg" xmlns:xlink="http://www.w3.org/1999/xlink" x="0px" y="0px"
	 viewBox="0 0 187.7 36.7" style="enable-background:new 0 0 187.7 36.7;" xml:space="preserve">
<style type="text/css">
	.st0{fill:url(#SVGID_1_);}
	.st1{fill:url(#SVGID_2_);}
	.st2{fill:#5C63AB;}
</style>
<g>
	<g>
		
			<linearGradient id="SVGID_1_" gradientUnits="userSpaceOnUse" x1="1.0065" y1="-424.2661" x2="46.9718" y2="-424.2661" gradientTransform="matrix(1 0 0 1 0 440)">
			<stop  offset="0" style="stop-color:#FF1E1E"/>
			<stop  offset="1" style="stop-color:#F86F00"/>
		</linearGradient>
		<path class="st0" d="M7.5,28.6c-0.2,0.3-0.5,0.5-0.8,0.5c-0.1,0-0.2,0-0.4-0.1l-3.9-1.7C1.5,27,0.9,26,1,25.1
			c0.5-5.1,4.4-6.6,7.2-7.7c0.9-0.4,1.9-0.7,2.4-1.1c-1.5-0.6-2.4-2-2.4-3.6V8.7c0-3.3,2.7-6.2,5.9-6.3v0l0,0c0,0,0,0,0,0v0
			c0,0,0.1,0,0.1,0c0.8,0,1.5,0.1,2.3,0.5c0.5,0.2,0.7,0.7,0.5,1.2c-0.2,0.5-0.7,0.7-1.2,0.5c-0.6-0.3-1-0.4-1.5-0.4c0,0,0,0,0,0
			c-2.3,0-4.3,2.1-4.3,4.5v4c0,1,0.6,1.8,1.5,2c0.5,0.1,0.9,0.5,1,1c0.2,0.5,0.1,1.1-0.3,1.5c-0.7,0.8-1.9,1.3-3.3,1.8
			c-2.6,1-5.6,2.2-6,6.1c0,0.2,0.1,0.4,0.3,0.5L7,27.4C7.4,27.6,7.6,28.1,7.5,28.6z M45.5,27.4L41.7,29c-0.1,0.1-0.2,0.1-0.4,0.1
			c-0.4,0-0.7-0.2-0.8-0.5c-0.2-0.5,0-1,0.5-1.2l3.9-1.7c0.2-0.1,0.4-0.3,0.3-0.5c-0.4-3.9-3.4-5.1-6-6.1c-1.4-0.5-2.6-1-3.3-1.8
			c-0.4-0.4-0.5-1-0.3-1.5c0.1-0.5,0.6-0.9,1.1-1.1c0.9-0.2,1.6-1.1,1.6-2V8.7c0-2.4-2.1-4.5-4.4-4.5c-0.5,0-1.1,0.1-1.6,0.4
			c-0.5,0.2-1,0-1.2-0.5c-0.2-0.5,0-1,0.5-1.2c0.8-0.4,1.6-0.5,2.4-0.5c3.3,0,6.2,2.9,6.2,6.3v3.9c0,1.6-1.1,3.1-2.6,3.6
			c0.5,0.4,1.4,0.8,2.3,1.1c2.8,1.1,6.6,2.6,7.2,7.7C47.1,26.1,46.5,27,45.5,27.4z"/>
	</g>
	<g id="Mode_Isolation">
		<g>
			
				<linearGradient id="SVGID_2_" gradientUnits="userSpaceOnUse" x1="8.556" y1="-421.5381" x2="39.3104" y2="-421.5381" gradientTransform="matrix(1 0 0 1 0 440)">
				<stop  offset="0" style="stop-color:#FF1E1E"/>
				<stop  offset="1" style="stop-color:#F86F00"/>
			</linearGradient>
			<path class="st1" d="M39.3,27.9c-0.6-5.9-5.1-7.6-8.4-8.9c-1.3-0.5-2.5-1-3.1-1.5c2-0.5,3.4-2.3,3.4-4.3V8.4
				c0-3.8-3.3-7.2-7.2-7.3h0l0,0c-3.9,0-7.2,3.4-7.2,7.4v4.7c0,2,1.3,3.7,3.2,4.3C19.5,18,18.2,18.5,17,19c-3.3,1.3-7.8,3-8.4,8.9
				c-0.1,1.1,0.5,2.1,1.6,2.6l12.1,5c0.5,0.2,1.1,0.3,1.7,0.3c0.6,0,1.1-0.1,1.7-0.3l12.1-5C38.8,30.1,39.4,29,39.3,27.9z
				 M37.1,28.9l-12.1,5c-0.7,0.3-1.4,0.3-2,0l-12.1-5c-0.3-0.1-0.5-0.5-0.5-0.8c0.5-4.8,4.1-6.2,7.3-7.5c1.6-0.6,3-1.2,3.9-2.1
				c0.4-0.5,0.5-1.1,0.4-1.6c-0.2-0.6-0.6-1-1.2-1.2c-1.2-0.3-2.1-1.4-2.1-2.6V8.5c0-3,2.6-5.6,5.5-5.6h0h0.1c2.8,0,5.4,2.6,5.4,5.5
				v4.8c0,1.2-0.9,2.3-2.2,2.6c-0.6,0.1-1.1,0.6-1.3,1.2c-0.2,0.6,0,1.2,0.4,1.6c0.8,0.9,2.2,1.5,3.8,2.1c3.2,1.2,6.8,2.7,7.3,7.5
				C37.6,28.5,37.4,28.8,37.1,28.9z"/>
		</g>
	</g>
</g>
<g>
	<path class="st2" d="M57.1,27.8c-1,0-1.8-0.2-2.6-0.7s-1.4-1.1-1.8-1.9c-0.5-0.8-0.7-1.7-0.7-2.7l0-8.1c0-1,0.2-1.8,0.7-2.6
		c0.4-0.8,1-1.4,1.8-1.9c0.8-0.5,1.6-0.7,2.6-0.7s1.8,0.2,2.6,0.7c0.8,0.5,1.4,1.1,1.8,1.9c0.5,0.8,0.7,1.7,0.7,2.6v1.2
		c0,0.1,0,0.1-0.1,0.1h-2.9c-0.1,0-0.1,0-0.1-0.1v-1.2c0-0.6-0.2-1.1-0.6-1.5c-0.4-0.4-0.8-0.6-1.4-0.6c-0.6,0-1.1,0.2-1.4,0.6
		c-0.3,0.4-0.5,0.9-0.5,1.5v8.1c0,0.6,0.2,1.2,0.6,1.6c0.4,0.4,0.8,0.6,1.4,0.6c0.6,0,1-0.2,1.4-0.7c0.4-0.4,0.6-0.9,0.6-1.5v-1.2
		c0-0.1,0-0.1,0.1-0.1h2.9c0.1,0,0.1,0,0.1,0.1v1.2c0,1-0.2,1.9-0.7,2.7c-0.5,0.8-1.1,1.4-1.8,1.9S58.1,27.8,57.1,27.8z"/>
	<path class="st2" d="M72.8,27.8c-0.9,0-1.8-0.2-2.6-0.7s-1.4-1.1-1.9-1.9c-0.5-0.8-0.7-1.7-0.7-2.6l0-8.2c0-1,0.2-1.8,0.7-2.6
		c0.5-0.8,1.1-1.4,1.9-1.9c0.8-0.5,1.6-0.7,2.5-0.7c0.9,0,1.8,0.2,2.5,0.7c0.8,0.5,1.4,1.1,1.8,1.9c0.5,0.8,0.7,1.6,0.7,2.6l0,8.2
		c0,1-0.2,1.8-0.7,2.6c-0.5,0.8-1.1,1.4-1.8,1.9S73.8,27.8,72.8,27.8z M72.8,24.6c0.5,0,1-0.2,1.4-0.6c0.4-0.4,0.6-0.9,0.6-1.4
		l0-8.2c0-0.6-0.2-1.1-0.5-1.5c-0.4-0.4-0.8-0.6-1.4-0.6c-0.5,0-1,0.2-1.4,0.6c-0.4,0.4-0.6,0.9-0.6,1.5v8.2c0,0.6,0.2,1.1,0.6,1.5
		C71.8,24.4,72.3,24.6,72.8,24.6z"/>
	<path class="st2" d="M85.7,27.5c-0.1,0-0.1,0-0.1-0.1L82.5,9.5c0-0.1,0-0.1,0.1-0.1h2.9c0.1,0,0.1,0,0.1,0.1l1.7,11.8L89,9.5
		c0-0.1,0.1-0.1,0.2-0.1h2.3c0.1,0,0.1,0,0.1,0.1l1.7,11.8L95,9.5c0-0.1,0.1-0.1,0.1-0.1h2.9c0.1,0,0.1,0,0.1,0.1l-3.1,17.9
		c0,0-0.1,0.1-0.1,0.1h-3.1c-0.1,0-0.1,0-0.1-0.1l-1.3-9.3L89,27.4c0,0.1-0.1,0.1-0.1,0.1H85.7z"/>
	<path class="st2" d="M107.9,27.8c-0.9,0-1.8-0.2-2.6-0.7s-1.4-1.1-1.9-1.9c-0.5-0.8-0.7-1.7-0.7-2.6l0-8.2c0-1,0.2-1.8,0.7-2.6
		c0.5-0.8,1.1-1.4,1.9-1.9c0.8-0.5,1.6-0.7,2.5-0.7c0.9,0,1.8,0.2,2.5,0.7c0.8,0.5,1.4,1.1,1.8,1.9c0.5,0.8,0.7,1.6,0.7,2.6l0,8.2
		c0,1-0.2,1.8-0.7,2.6c-0.5,0.8-1.1,1.4-1.8,1.9S108.8,27.8,107.9,27.8z M107.9,24.6c0.5,0,1-0.2,1.4-0.6c0.4-0.4,0.6-0.9,0.6-1.4
		l0-8.2c0-0.6-0.2-1.1-0.5-1.5c-0.4-0.4-0.8-0.6-1.4-0.6c-0.5,0-1,0.2-1.4,0.6c-0.4,0.4-0.6,0.9-0.6,1.5v8.2c0,0.6,0.2,1.1,0.6,1.5
		C106.9,24.4,107.3,24.6,107.9,24.6z"/>
	<path class="st2" d="M119,27.5c-0.1,0-0.1,0-0.1-0.1l0.1-17.9c0-0.1,0-0.1,0.1-0.1h5.3c0.9,0,1.8,0.2,2.6,0.7
		c0.8,0.5,1.4,1.1,1.9,1.8c0.5,0.8,0.7,1.6,0.7,2.6c0,0.6-0.1,1.2-0.3,1.7c-0.2,0.5-0.4,0.9-0.7,1.3c-0.3,0.4-0.5,0.6-0.7,0.8
		c0.9,1,1.4,2.3,1.4,3.7l0,5.3c0,0.1,0,0.1-0.1,0.1h-2.9c-0.1,0-0.1,0-0.1-0.1v-5.4c0-0.6-0.2-1.2-0.7-1.6c-0.4-0.5-1-0.7-1.6-0.7
		H122l0,7.6c0,0.1,0,0.1-0.1,0.1H119z M122,16.6h2.2c0.5,0,1-0.2,1.4-0.6c0.4-0.4,0.6-0.9,0.6-1.5c0-0.6-0.2-1-0.6-1.4
		c-0.4-0.4-0.9-0.6-1.4-0.6H122V16.6z"/>
	<path class="st2" d="M135.4,27.5c-0.1,0-0.1,0-0.1-0.1l0.1-17.8c0-0.1,0-0.1,0.1-0.1h2.9c0.1,0,0.1,0,0.1,0.1v6.2l4.1-6.2
		c0.1-0.1,0.1-0.1,0.2-0.1h3c0.1,0,0.1,0,0.1,0.1l-4.5,7.2l5,10.7c0,0.1,0,0.1-0.1,0.1H143c-0.1,0-0.1,0-0.2-0.1l-3.5-7.6l-0.9,1.4
		v6.2c0,0.1,0,0.1-0.1,0.1H135.4z"/>
	<path class="st2" d="M151.5,27.5c-0.1,0-0.1,0-0.1-0.1l0-17.9c0-0.1,0-0.1,0.1-0.1h2.9c0.1,0,0.1,0,0.1,0.1l0,17.9
		c0,0.1,0,0.1-0.1,0.1H151.5z"/>
	<path class="st2" d="M161,27.5c-0.1,0-0.2-0.1-0.2-0.2l0-17.7c0-0.1,0.1-0.2,0.2-0.2h2.3l4.4,10.2l-0.1-10c0-0.1,0.1-0.2,0.2-0.2
		h2.6c0.1,0,0.2,0.1,0.2,0.2l0,17.7c0,0.1,0,0.2-0.1,0.2h-2.3l-4.5-9.6l0.2,9.4c0,0.1-0.1,0.2-0.2,0.2H161z"/>
	<path class="st2" d="M181.5,27.8c-0.9,0-1.8-0.2-2.5-0.7s-1.4-1.1-1.8-1.9s-0.7-1.7-0.7-2.6v-8.2c0-0.9,0.2-1.8,0.7-2.6
		c0.5-0.8,1.1-1.4,1.8-1.9c0.8-0.5,1.6-0.7,2.5-0.7c1,0,1.8,0.2,2.6,0.7c0.8,0.5,1.4,1.1,1.8,1.9s0.7,1.7,0.7,2.6v1.2
		c0,0.1,0,0.1-0.1,0.1h-2.9c-0.1,0-0.1,0-0.1-0.1v-1c0-0.7-0.2-1.2-0.6-1.6c-0.4-0.4-0.8-0.6-1.4-0.6c-0.5,0-0.9,0.2-1.3,0.6
		s-0.6,0.9-0.6,1.5v8.2c0,0.6,0.2,1.1,0.6,1.5c0.4,0.4,0.8,0.6,1.4,0.6c0.6,0,1-0.2,1.4-0.6c0.4-0.4,0.6-0.9,0.6-1.5v-1.3h-1.8
		c-0.1,0-0.1,0-0.1-0.1v-2.9c0-0.1,0-0.1,0.1-0.1h4.9c0.1,0,0.1,0,0.1,0.1v4.3c0,1-0.2,1.8-0.7,2.6c-0.5,0.8-1.1,1.4-1.8,1.9
		S182.4,27.8,181.5,27.8z"/>
</g>
</svg>
