<?xml version="1.0" encoding="utf-8"?>
<!-- Generator: Adobe Illustrator 23.0.1, SVG Export Plug-In . SVG Version: 6.00 Build 0)  -->
<svg version="1.1" id="Calque_1" xmlns="http://www.w3.org/2000/svg" xmlns:xlink="http://www.w3.org/1999/xlink" x="0px" y="0px"
	 viewBox="0 0 256 256" style="enable-background:new 0 0 256 256;" xml:space="preserve">
<style type="text/css">
	.st0{fill:url(#SVGID_1_);}
	.st1{fill:url(#SVGID_2_);}
</style>
<g>
	<g>
		
			<linearGradient id="SVGID_1_" gradientUnits="userSpaceOnUse" x1="0.7474" y1="362.15" x2="255.172" y2="362.15" gradientTransform="matrix(1 0 0 -1 0 475)">
			<stop  offset="0" style="stop-color:#FF1E1E"/>
			<stop  offset="1" style="stop-color:#F86F00"/>
		</linearGradient>
		<path class="st0" d="M36.5,184c-0.9,1.8-2.7,3-4.6,3c-0.7,0-1.3-0.2-2-0.4l-21.4-9.2c-5.1-2.2-8.2-7.5-7.7-12.9
			C3.6,136.3,25,128.2,40.5,122c5.1-2,10.4-3.9,13.3-6.2c-8.1-3.1-13.5-11.2-13.5-20.2V73.8c0-18.5,14.7-34.4,32.5-35v-0.1l0.2,0.1
			c-0.1,0-0.1,0-0.2,0v0.1c0.2,0,0.6,0,0.8,0c4.4,0,8.2,0.8,12.8,3c2.5,1.1,3.6,4.1,2.5,6.6s-4.1,3.6-6.6,2.5
			c-3.2-1.5-5.5-2.2-8.5-2.2c-0.1,0-0.1,0-0.1,0C61,49,50.1,60.6,50.1,73.8v21.9c0,5.4,3.1,10,8.2,11.3c2.9,0.8,4.9,2.9,5.8,5.8
			c1,3,0.3,6.2-1.8,8.5c-4,4.6-10.6,7.2-18.3,10.2c-14.5,5.5-31,12-33.3,34c-0.1,1.1,0.6,2.3,1.7,2.8l21.5,9.2
			C36.4,178.5,37.5,181.5,36.5,184z M247.3,177.2l-21.4,9.2c-0.6,0.3-1.3,0.4-2,0.4c-2.1,0-3.8-1.1-4.6-3c-1.1-2.6,0.1-5.4,2.6-6.6
			l21.4-9.2c1.2-0.5,2-1.6,1.8-2.8c-2.3-21.8-18.7-28.3-33.3-34c-7.6-3-14.2-5.5-18.3-10.2c-2.1-2.4-2.7-5.4-1.8-8.4
			c0.8-2.9,3.2-5.1,6.1-5.9c5-1.3,8.9-6,8.9-11.3V73.7c0-13.4-11.5-25.1-24.4-25.1c-3,0-6,0.8-9,2.2c-2.5,1.1-5.4,0-6.6-2.5
			c-1.2-2.5,0-5.4,2.5-6.6c4.4-2,8.6-3,13.1-3c18.5,0,34.4,16,34.4,35v21.8c0,9-5.9,17.2-14.2,20.2c2.9,2.2,7.7,4.2,12.9,6.2
			c15.5,6.2,36.8,14.5,39.7,42.4C255.7,170,252.5,175.3,247.3,177.2z"/>
	</g>
	<g id="Mode_Isolation">
		<g>
			
				<linearGradient id="SVGID_2_" gradientUnits="userSpaceOnUse" x1="42.5349" y1="347.05" x2="212.765" y2="347.05" gradientTransform="matrix(1 0 0 -1 0 475)">
				<stop  offset="0" style="stop-color:#FF1E1E"/>
				<stop  offset="1" style="stop-color:#F86F00"/>
			</linearGradient>
			<path class="st1" d="M212.7,180.4c-3.3-32.6-28.3-42.2-46.5-49.3c-7.1-2.8-13.6-5.3-17-8.5c10.9-3,19-12.9,19-23.8V72.2
				c0-21.3-18.5-39.9-39.7-40.2h-0.1l0,0C107,32,88.6,51,88.6,72.7v25.9c0,10.9,7,20.6,17.8,23.7c-3.2,3.2-10.3,6-17.4,8.7
				c-18.2,7.1-43.1,16.7-46.4,49.4c-0.6,6.1,3,11.9,8.7,14.3l67.1,27.4c3,1.2,6.1,1.8,9.2,1.8c3.2,0,6.2-0.6,9.2-1.8l67-27.4
				C209.7,192.4,213.3,186.5,212.7,180.4z M200.4,185.8l-67,27.4c-3.6,1.5-7.5,1.5-11.1,0l-67.1-27.4c-1.7-0.7-2.9-2.5-2.8-4.3
				c2.8-26.7,22.6-34.5,40.2-41.4c8.9-3.5,16.6-6.5,21.4-11.8c2.2-2.5,2.9-5.9,2-8.9c-1-3.2-3.5-5.5-6.7-6.5
				c-6.7-1.7-11.6-7.8-11.6-14.4V72.8c0-16.4,14.2-30.8,30.2-30.8h0.1h0.4c15.6,0.1,30.1,14.6,30.1,30.3v26.5
				c0,6.6-5.2,12.6-12,14.6c-3.2,0.8-6,3.4-7,6.6s-0.2,6.6,2,8.9c4.7,5.1,12.3,8.1,21.2,11.6c17.7,6.9,37.7,14.7,40.3,41.4
				C203.2,183.3,202.1,185.2,200.4,185.8z"/>
		</g>
	</g>
</g>
</svg>
